<svg xmlns="http://www.w3.org/2000/svg" viewBox="0 0 42 38" fill="none" xmlns:v="https://vecta.io/nano"><g clip-path="url(#A)" fill="#59882b"><path d="M39.95 17.528h-.607c-.224-1.53-.917-3.057-1.946-4.254-1.26-1.464-2.86-2.27-4.512-2.27-1.02 0-2.047.317-2.974.916-.276.18-.34.526-.143.776a.66.66 0 0 0 .858.13c.727-.47 1.488-.708 2.26-.708 1.263 0 2.52.654 3.54 1.84a7.46 7.46 0 0 1 1.675 3.57H27.67c.173-1.026.587-2.052 1.195-2.942.18-.26.1-.605-.2-.766s-.668-.08-.847.18c-.727 1.064-1.212 2.3-1.392 3.528h-.605c-1.13 0-2.05.833-2.05 1.856s.92 1.856 2.05 1.856h.124c.14 2.5 1.616 4.726 3.876 5.832l-1.108 3.917a1.18 1.18 0 0 0 .255 1.106c.27.316.68.496 1.12.496h5.6a1.47 1.47 0 0 0 1.123-.497 1.18 1.18 0 0 0 .254-1.106L35.95 27.07c2.26-1.106 3.735-3.32 3.876-5.832h.124c1.13 0 2.05-.832 2.05-1.856s-.92-1.856-2.05-1.856h0zM35.83 31.4c-.02.025-.07.067-.15.067h-5.6c-.08 0-.128-.04-.15-.066s-.054-.077-.034-.147l1.06-3.752c.622.18 1.264.27 1.92.27s1.297-.1 1.92-.27l1.06 3.752c.02.07-.013.122-.034.147h0zm-2.946-4.742c-2.9 0-5.502-2.27-5.7-5.43h11.418c-.2 3.177-2.815 5.43-5.7 5.43zm7.064-6.542H25.82c-.453 0-.82-.333-.82-.742s.368-.742.82-.742h14.13c.453 0 .82.333.82.742s-.368.742-.82.742h0zM9.35 8.653l.1.048a.35.35 0 0 1 .192.217c.016.055.032.163-.046.275l-.635.914c-.18.26-.094.604.193.768a.66.66 0 0 0 .327.085c.205 0 .404-.092.52-.26l.635-.914c.24-.343.3-.765.192-1.157s-.4-.725-.807-.914l-.1-.048a.35.35 0 0 1-.192-.217c-.016-.055-.032-.163.046-.275l.635-.914c.18-.26.094-.604-.193-.767s-.667-.085-.848.175l-.635.914c-.24.343-.3.765-.192 1.157s.4.725.807.914h0zm3.962 0l.1.048a.35.35 0 0 1 .192.217c.016.055.032.163-.046.275l-.635.914c-.18.26-.094.604.193.767a.66.66 0 0 0 .327.085c.204 0 .405-.092.52-.26l.635-.914a1.34 1.34 0 0 0 .193-1.157c-.117-.392-.4-.725-.807-.914l-.1-.048a.35.35 0 0 1-.192-.217c-.016-.054-.032-.163.046-.275l.635-.914c.18-.26.094-.604-.193-.767s-.667-.085-.848.175l-.635.914a1.34 1.34 0 0 0-.193 1.157c.117.392.4.725.807.914h0zm3.96 0l.1.048a.35.35 0 0 1 .192.217c.016.055.032.163-.046.275l-.635.914c-.18.26-.094.604.193.768a.66.66 0 0 0 .327.085.63.63 0 0 0 .52-.26l.635-.914c.24-.343.3-.765.192-1.157s-.4-.725-.807-.914l-.1-.048a.35.35 0 0 1-.192-.217c-.016-.055-.032-.163.046-.275l.635-.914c.18-.26.094-.604-.193-.767s-.668-.085-.848.175l-.635.914a1.34 1.34 0 0 0-.193 1.157c.117.392.4.725.807.913h0zm5.625 20.287H19.5c1.573-1.172 2.535-2.94 2.535-4.857V14.07c0-.78-.702-1.416-1.565-1.416h-2.277c-.34 0-.615.25-.615.557s.275.557.615.557h2.277c.185 0 .335.136.335.303v10c0 2.17-1.502 4.1-3.747 4.857h-6.82C7.992 28.193 6.5 26.253 6.5 24.08V14.07c0-.167.15-.303.336-.303h3.248v2.77l-.068.032-.802.408c-.438.223-.7.645-.7 1.1v1.743c0 .696.625 1.262 1.394 1.262h1.603c.77 0 1.394-.566 1.394-1.262v-1.743c0-.455-.272-.876-.7-1.1l-.87-.44v-2.77h4.02c.34 0 .615-.25.615-.557s-.275-.557-.615-.557H6.827c-.863 0-1.566.635-1.566 1.416v.814l-1.58-.037a3.79 3.79 0 0 0-2.535.88A3.05 3.05 0 0 0 .04 17.972L0 19.395c-.02.754.64 1.383 1.474 1.403 1.122.026 2.185.484 2.915 1.256l.872.922v1.105c0 1.917.963 3.685 2.536 4.857H4.4c-.44 0-.798.324-.798.722v.452c0 1.367 1.23 2.48 2.74 2.48h9.344c.34 0 .615-.25.615-.557s-.276-.557-.615-.557H6.342c-.832 0-1.5-.613-1.5-1.366v-.06h17.633v.06c0 .753-.677 1.366-1.5 1.366h-2.4c-.34 0-.615.25-.615.557s.276.557.615.557h2.4c1.5 0 2.74-1.112 2.74-2.48v-.452c0-.398-.358-.722-.798-.722h0zm-11.327-11c.052.026.084.076.084.13v1.743c0 .082-.074.148-.164.148H9.9c-.1 0-.164-.067-.164-.148V18.08c0-.053.032-.103.084-.13l.8-.408c.024-.012.05-.018.08-.02h.003c.027 0 .055.006.08.02l.8.408zM1.506 19.685c-.156-.004-.28-.122-.276-.262L1.272 18c.016-.56.272-1.08.72-1.466a2.39 2.39 0 0 1 1.656-.575l1.613.037v5.27c-.954-.972-2.316-1.548-3.755-1.582h0z"/></g><defs><clipPath id="A"><path fill="#fff" d="M0 0h42v38H0z"/></clipPath></defs></svg>