<svg xmlns="http://www.w3.org/2000/svg" viewBox="0 0 42 38" fill="none" xmlns:v="https://vecta.io/nano"><path d="M39.77 10.725H32.65c-1.23 0-2.23.905-2.23 2.018v7.417h-2.664c.148-.487.203-1.06.167-1.73h0c-.058-2.825-.624-5.205-1.684-7.076-.823-1.452-1.783-2.323-2.607-2.843.967-.9 1.526-2.18 1.526-3.655 0-2.656-2.34-4.816-5.22-4.816s-5.22 2.16-5.22 4.816c0 .307.275.557.615.557h.418c-.038.2-.06.424-.06.64 0 1.872 1.478 3.436 3.432 3.786-.205.688-.307 1.5-.306 2.42l-1.534 1.194-3.734.273-4.307-1.288c-.395-.12-.842-.253-1.23 0-.383.25-.383.687-.383.83v2.897c0 .308.275.557.615.557h.732l-1.123 3.512c-.094.295.094.604.42.69s.668-.085.762-.38l1.222-3.822H12c-2.176 6.002-.934 10.01.974 14.063h-1.106l-4.606-4.66.974-3.044c.095-.295-.094-.604-.42-.69s-.668.085-.762.38l-.932 2.912c-2.88-.043-5.46 1.754-6.116 4.34-.076.3.13.598.462.667l.873.182c-.223 2.097 1.303 4.075 3.63 4.56a5.21 5.21 0 0 0 1.064.11c.873 0 1.73-.22 2.5-.652.9-.505 1.554-1.247 1.913-2.124l.69.143c.205.043.4.065.595-.03a.65.65 0 0 0 .347-.427 5.06 5.06 0 0 0 .099-.554h12.867c.412 2.315 2.588 4.06 5.188 4.06s4.776-1.745 5.188-4.06h.47l.114.001c.176 0 .43-.018.64-.2.104-.096.227-.268.218-.54-.017-.523-.104-1.028-.252-1.508.5-2.692.02-4.33-.68-5.614.442-.262.735-.714.735-1.227v-1.53h3.108c1.23 0 2.23-.905 2.23-2.018v-6.512c0-1.113-1-2.018-2.23-2.018h0zM7.882 33.95a3.76 3.76 0 0 1-2.624.4h0c-1.665-.347-2.776-1.728-2.695-3.222l6.673 1.4c-.276.588-.743 1.086-1.354 1.432h0zm3.078-2.217L1.4 29.74c.74-1.83 2.726-3.04 4.898-2.937l4.688 4.743c-.004.063-.01.125-.016.187zm9.293-9.7c-.18.426-.18.952-.18 1.68v2.1h-2.253V22.93c0-3.258 1.965-3.84 2.847-3.934H26.7c-.024.74-.21 1.265-.56 1.6-.408.39-1.106.578-2.134.58l-2.208.002c-.788 0-1.308.288-1.546.857h0zm-.18 4.893v1.33h-4.387c.05-.412.19-.73.424-.952.347-.328.835-.377 1.095-.377h2.868zm6.6-9.043h-5.595a19.22 19.22 0 0 1-.59-2.06l1.7-1c.93-.546 1.412-1.316 1.325-2.115-.076-.708-.608-1.34-1.355-1.61-.682-.247-1.416-.17-2.065.206.053-.532.153-1.008.297-1.41a4.74 4.74 0 0 0 .778-.139 5.42 5.42 0 0 0 1.436-.515c1.185.64 3.79 2.718 4.067 8.645h0zM15.995 4.3c.3-1.78 1.948-3.146 3.944-3.146 2.2 0 3.99 1.66 3.99 3.703 0 1.66-.88 3-2.3 3.588v-2.93c0-.507-.215-1.13-1.236-1.213-.02-.002-.037-.002-.056-.002h-4.342zm.93 1.755a2.52 2.52 0 0 1 .082-.641h3.3a1.05 1.05 0 0 1 .086.011.6.6 0 0 1 .006.091V8.77c-.147.02-.294.03-.442.03-1.674-.001-3.032-1.233-3.032-2.747zm-.798 8.603l1.457-.107a.65.65 0 0 0 .352-.133l2.63-2.047c.254-.198.526-.3.8-.3.118 0 .234.02.347.06.325.118.556.387.588.686.04.376-.233.757-.77 1.073l-2.93 1.72h-2.463v-.955zm-2.6.2l1.37-.1v.865h-1.59c-.206 0-.257-.155-.263-.285-.003-.074.004-.444.484-.48h0zm-1.456-.384a1.51 1.51 0 0 0-.258.909 1.47 1.47 0 0 0 .031.235l-2.98.005v-2.113l3.2.96-.002.004zm1.238 2.262h5.463a.66.66 0 0 0 .335-.09l.278-.164c.134.536.287 1.057.453 1.55-1.255.335-3.246 1.418-3.246 4.9v2.938c-.432.08-.942.26-1.37.665-.45.426-.707 1.004-.77 1.72h-1.24c-1.25-3.26-1.726-6.73.097-11.53h0zm1.014 14.06c-.227-.473-.447-.945-.653-1.418h6.388c.828 0 1.248-.34 1.248-1.014V24.27h4.856c.34 0 .615-.25.615-.557s-.275-.557-.615-.557H21.31c.008-.316.03-.575.094-.727.03-.074.058-.138.396-.138l2.21-.002c1.383-.001 2.373-.304 3.026-.926.03-.03.06-.06.087-.09h8.31v1.53c0 .19-.178.353-.39.353H28.92c-.34 0-.615.25-.615.557s.275.557.615.557h5.763c.486.817.924 1.833.898 3.438-1.217-1.53-3.188-2.513-5.424-2.513-1.796 0-3.48.637-4.745 1.795-1.122 1.027-1.796 2.36-1.934 3.8l-9.154-.002zm15.91 4.06c-1.923 0-3.545-1.254-3.938-2.946h7.876c-.392 1.692-2.015 2.946-3.938 2.946h0zm4.637-4.06H24.712c.302-2.517 2.628-4.48 5.444-4.48 2.472 0 4.548 1.475 5.235 3.54l.007.02c.097.296.166.605.203.922h-.732zm5.9-11.533c0 .5-.448.905-.998.905h-8.12v-2.875h9.12v1.97zm0-3.083h-9.12v-1.184h9.12v1.184zm0-2.297h-9.12v-1.132c0-.5.448-.905 1-.905h7.122c.55 0 1 .406 1 .905v1.132z" fill="#59882b"/></svg>