<svg xmlns="http://www.w3.org/2000/svg" viewBox="0 0 42 38" fill="none" xmlns:v="https://vecta.io/nano"><g clip-path="url(#A)"><path d="M40.654 21.395l1.315-6.544c.19-.947-.506-1.86-1.554-2.03a2.08 2.08 0 0 0-1.446.283c-.423.265-.707.664-.8 1.123l-.64 3.188c-.06.302.16.592.495.647s.655-.146.715-.448l.64-3.188c.034-.167.136-.31.29-.408s.34-.132.524-.102c.38.063.633.393.563.736l-1.315 6.544c-.06.3-.35.52-.69.52H34.84l-.14-1.267h2.957c.34 0 .615-.25.615-.557s-.276-.557-.615-.557h-3.08l-.47-4.258c-.03-.284-.296-.5-.612-.5h-1.842l.466-1.688c.046-.166.005-.342-.112-.478a.64.64 0 0 0-.485-.214h-4.603a.64.64 0 0 0-.485.214c-.117.135-.158.31-.112.478l.466 1.688h-3.564l.978-2.21a.51.51 0 0 0-.062-.519c-.114-.153-.305-.245-.51-.245h-.428c.244-.357.386-.778.386-1.228 0-1.29-1.16-2.34-2.588-2.34s-2.588 1.05-2.588 2.34c0 .45.14.87.386 1.228h-.428c-.204 0-.395.09-.51.245a.51.51 0 0 0-.062.519l.978 2.21h-3.564l.467-1.688c.046-.166.005-.342-.112-.478a.64.64 0 0 0-.485-.214H10.48a.64.64 0 0 0-.485.214c-.117.135-.158.31-.112.478l.466 1.688H8.507c-.316 0-.58.217-.612.5l-.47 4.258h-3.08c-.34 0-.615.25-.615.557s.275.557.615.557H7.3l-.14 1.267H3.246c-.338 0-.628-.22-.69-.52L1.242 14.65c-.07-.344.184-.674.563-.736.185-.03.37.006.525.102s.256.24.29.408l.64 3.188c.06.303.38.503.715.448s.556-.345.495-.647l-.64-3.187a1.73 1.73 0 0 0-.799-1.124c-.424-.266-.937-.366-1.446-.282-1.047.172-1.744 1.084-1.554 2.03l1.315 6.544c.08.395.303.737.614.99l-.643 6.98c-.028.306.223.575.562.6l.052.002c.317 0 .586-.22.612-.5l.61-6.632.09.004h3.792l-.458 4.148c-.017.156.04.312.156.43s.282.183.456.183c1.07 0 1.64-.393 2.098-.71l.32-.2.257 2.79c.027.29.296.5.612.5l.052-.002c.338-.026.6-.295.562-.6l-.273-2.96c.534.034.81.223 1.175.475.458.316 1.028.71 2.098.71s1.64-.393 2.098-.71c.405-.28.697-.48 1.352-.48s.948.202 1.353.48c.362.25.795.546 1.488.66v1.315h-3.33c-.34 0-.615.25-.615.557s.275.557.615.557h7.89c.34 0 .615-.25.615-.557s-.275-.557-.615-.557h-3.33v-1.316c.688-.115 1.118-.4 1.478-.66.405-.28.697-.48 1.352-.48s.948.202 1.354.48c.458.316 1.028.71 2.1.71s1.642-.393 2.1-.71c.368-.253.644-.442 1.182-.476l-.273 2.96c-.028.306.223.575.562.6l.052.002c.317 0 .586-.22.613-.5l.257-2.787.318.21c.458.316 1.03.71 2.1.71.174 0 .34-.067.456-.183s.173-.272.156-.43l-.458-4.148h3.792l.09-.004.61 6.633c.027.29.296.5.612.5l.052-.002c.34-.026.6-.295.562-.6l-.643-6.98c.31-.252.535-.594.614-.99h0zM27.707 13.3h3.027l-.35 1.267h-2.327l-.35-1.267zm-8.063-2.936c0-.677.61-1.228 1.357-1.228s1.357.55 1.357 1.228S21.75 11.6 21 11.6s-1.357-.55-1.357-1.228zm-.364 2.342h3.443l-.823 1.86h-1.797l-.823-1.86zm-8.01.595h3.027l-.35 1.267h-2.327l-.35-1.267zm22.187 12.684c-.458-.316-1.03-.71-2.1-.71s-1.642.393-2.1.71c-.406.28-.7.48-1.355.48s-.948-.202-1.354-.48c-.458-.316-1.028-.71-2.1-.71s-1.64.393-2.098.71c-.405.28-.697.48-1.352.48s-.948-.202-1.353-.48c-.458-.316-1.028-.71-2.1-.71s-1.64.393-2.098.71c-.405.28-.697.48-1.353.48s-.947-.202-1.352-.48c-.458-.316-1.028-.71-2.098-.71s-1.64.393-2.098.71c-.228.157-.42.3-.66.375l1.18-10.68h23.874l1.18 10.68c-.242-.086-.435-.22-.663-.376h0z" fill="#59882b"/></g><defs><clipPath id="A"><path fill="#fff" d="M0 0h42v38H0z"/></clipPath></defs></svg>