<svg xmlns="http://www.w3.org/2000/svg" viewBox="0 0 56 54" fill="#59882b" xmlns:v="https://vecta.io/nano"><path d="M28 7.594c4.95-.003 9.728 1.756 13.417 4.94l1.167-1.257C38.573 7.82 33.38 5.906 28 5.906s-10.573 1.912-14.583 5.37l1.167 1.257C18.272 9.35 23.05 7.6 28 7.594h0zm0 38.812c-2.855-.001-5.677-.587-8.28-1.72s-4.925-2.786-6.814-4.85l-1.312 1.117c2.053 2.244 4.577 4.042 7.406 5.273a22.57 22.57 0 0 0 9 1.868c3.103 0 6.172-.637 9-1.868s5.353-3.03 7.406-5.273l-1.312-1.117c-1.9 2.064-4.212 3.718-6.814 4.85a20.77 20.77 0 0 1-8.28 1.72h0zM42.67 24.6a13.99 13.99 0 0 1 .205 2.39 13.86 13.86 0 0 1-.683 4.3 3.52 3.52 0 0 0-1.183-.925 16.56 16.56 0 0 0-3.693-1.285 8.35 8.35 0 0 0 2.869-5.28c.26-2.038-.262-4.097-1.464-5.8s-3.004-2.908-5.067-3.414-4.247-.27-6.143.665a3.99 3.99 0 0 0-1.702-.831c-.63-.138-1.285-.125-1.908.04s-1.195.473-1.665.9a3.78 3.78 0 0 0-1.03 1.549 4.06 4.06 0 0 0-1.692.088 4.01 4.01 0 0 0-1.497.764 3.82 3.82 0 0 0-1.027 1.299 3.69 3.69 0 0 0-.366 1.595 3.66 3.66 0 0 0 .301 1.456l-.157.08c-.5.246-1.047.525-1.442 1.048s-.496 1.115-.588 1.64a4.65 4.65 0 0 1-.148.667 4.58 4.58 0 0 1-.275.59c-.25.48-.535 1.026-.535 1.7s.284 1.2.535 1.7a5.21 5.21 0 0 1 .275.59 4.71 4.71 0 0 1 .147.666c.092.525.196 1.12.588 1.64s.952.802 1.442 1.048a5.03 5.03 0 0 1 .605.336c.18.137.35.285.5.445.396.377.844.805 1.5 1.007.624.195 1.24.108 1.78.03a5.38 5.38 0 0 1 .72-.072c.24.008.482.032.72.072l.155.022a2.71 2.71 0 0 0-.352.829 1.93 1.93 0 0 0-.024.95 2.1 2.1 0 0 0 .405.865c.818 1.022 2.4 1.294 3.745.643 1.544-.75 3.25-1.14 4.98-1.14a11.37 11.37 0 0 1 4.978 1.142l.15.068A15.17 15.17 0 0 1 28 41.344c-8.202 0-14.875-6.434-14.875-14.344S19.798 12.656 28 12.656c3.26-.01 6.43 1.022 9.018 2.935 2.533 1.87 4.382 4.47 5.276 7.424l1.68-.468c-1-3.3-3.064-6.207-5.895-8.297-2.9-2.14-6.436-3.293-10.08-3.282-9.167 0-16.625 7.192-16.625 16.03S18.833 43.03 28 43.03c4.276.003 8.388-1.588 11.475-4.44a2.52 2.52 0 0 0 .745-.625 2.01 2.01 0 0 0 .225-.346c2.697-2.926 4.184-6.705 4.18-10.62a15.62 15.62 0 0 0-.23-2.67l-1.726.28zm-1.6 8.198a.49.49 0 0 1 .016.212.5.5 0 0 1-.075.2c-.3.373-1 .447-1.572.167a13.26 13.26 0 0 0-8.836-.961l-.016.001v.003c-.925.22-1.822.54-2.673.956-.584.28-1.275.208-1.576-.168-.04-.06-.064-.13-.074-.2a.49.49 0 0 1 .017-.211c.066-.282.32-.674.84-.926a15.02 15.02 0 0 1 13.11 0c.518.253.774.644.84.926zM38.5 22.78a6.55 6.55 0 0 1-.99 3.468 6.88 6.88 0 0 1-2.701 2.481 16.97 16.97 0 0 0-5.196.452c.22-.415.343-.873.356-1.34 0-.665-.284-1.2-.535-1.7a5.21 5.21 0 0 1-.275-.59 2.96 2.96 0 0 1-.091-.356 3.57 3.57 0 0 0 2.14.936c.803.066 1.607-.14 2.27-.582s1.15-1.1 1.377-1.836a3.26 3.26 0 0 0-.139-2.262c-.315-.716-.878-1.305-1.592-1.667s-1.536-.475-2.327-.32a3.52 3.52 0 0 0-2.01 1.172A3.3 3.3 0 0 0 28 22.781v.04a5.36 5.36 0 0 0-1.019-.613 5.73 5.73 0 0 1-.605-.336c-.056-.04-.114-.085-.172-.135a3.97 3.97 0 0 0 1.385-.788c.4-.352.722-.78.943-1.257a3.68 3.68 0 0 0 .028-3.037 7.13 7.13 0 0 1 2.94-.622c1.856.002 3.635.714 4.947 1.98s2.05 2.98 2.053 4.77h0zm-8.75 0c0-.334.103-.66.295-.937s.466-.494.785-.622a1.81 1.81 0 0 1 1.011-.096 1.77 1.77 0 0 1 .896.462 1.67 1.67 0 0 1 .479.864 1.63 1.63 0 0 1-.1.975 1.7 1.7 0 0 1-.645.757 1.79 1.79 0 0 1-.972.284c-.464-.001-.9-.18-1.237-.495a1.66 1.66 0 0 1-.513-1.193h0zm-4.812-6.75a2.25 2.25 0 0 1 1.215.355 2.13 2.13 0 0 1 .806.947 2.04 2.04 0 0 1 .124 1.219c-.084.4-.293.785-.6 1.08s-.696.496-1.12.577a2.26 2.26 0 0 1-1.264-.12 2.17 2.17 0 0 1-.982-.777 2.06 2.06 0 0 1-.37-1.172 2.07 2.07 0 0 1 .64-1.49 2.24 2.24 0 0 1 1.546-.62h0zm-4.375 2.53a2.3 2.3 0 0 1 .468.048 3.71 3.71 0 0 0 .531 1.483 3.86 3.86 0 0 0 1.107 1.149 2.1 2.1 0 0 1-.628.984 2.22 2.22 0 0 1-1.071.518c-.4.073-.813.037-1.193-.104a2.18 2.18 0 0 1-.957-.694c-.246-.313-.397-.686-.435-1.077a2.04 2.04 0 0 1 .22-1.136 2.14 2.14 0 0 1 .806-.854c.346-.207.745-.317 1.152-.317h0zm1.313 14.976a6.81 6.81 0 0 0-.976.09c-.386.055-.75.107-.984.034-.252-.08-.518-.333-.8-.602-.22-.22-.457-.424-.7-.6a6.6 6.6 0 0 0-.827-.47c-.35-.176-.682-.342-.835-.544s-.212-.553-.277-.928a6.03 6.03 0 0 0-.209-.907c-.103-.285-.23-.56-.376-.827-.18-.343-.35-.668-.35-.933s.17-.6.35-.933a5.8 5.8 0 0 0 .376-.827c.093-.297.163-.6.2-.907.066-.375.127-.73.277-.928s.484-.368.835-.544l.375-.193c.463.397 1.017.682 1.617.834a4.08 4.08 0 0 0 1.833.037c.606-.127 1.17-.4 1.65-.77s.86-.86 1.1-1.407a5.6 5.6 0 0 1 .473.42c.22.22.457.424.7.6a6.6 6.6 0 0 0 .827.47c.35.176.682.342.834.544s.212.553.277.928c.046.307.116.6.2.907a5.76 5.76 0 0 0 .376.827c.18.344.35.668.35.933s-.17.6-.348.933a5.76 5.76 0 0 0-.376.827c-.03.1-.058.184-.084.287a16.63 16.63 0 0 0-1.089.483c-.902.44-1.56 1.2-1.758 2.06a2.3 2.3 0 0 0-.053.747c-.235.22-.46.414-.673.48-.234.073-.598.02-.984-.034a6.8 6.8 0 0 0-.977-.09h0zm15.4 3.56a13.21 13.21 0 0 0-11.527-.002c-.584.28-1.276.208-1.576-.17a.5.5 0 0 1-.074-.199.49.49 0 0 1 .017-.211c.066-.282.32-.673.84-.926a14.84 14.84 0 0 1 1.192-.517 3.39 3.39 0 0 0 1.295.159c.438-.032.866-.148 1.256-.342a11.21 11.21 0 0 1 2.166-.791 14.99 14.99 0 0 1 1.47.01 14.82 14.82 0 0 1 5.73 1.483c.518.252.773.643.84.926a.68.68 0 0 1 .016.22 14.58 14.58 0 0 1-.454.453 1.57 1.57 0 0 1-.605.07c-.205-.017-.404-.07-.586-.162zM52.5 4.22v8.438h-2.625V4.22h-1.75v8.438H45.5V4.22h-1.75v13.92c.001.697.257 1.37.723 1.903s1.112.9 1.824 1.008L45.5 46.406c0 .895.37 1.754 1.025 2.386a3.57 3.57 0 0 0 2.475.99c.928 0 1.82-.355 2.475-1S52.5 47.3 52.5 46.406l-.186-5.932-1.75.05.185 5.88c0 .447-.184.877-.513 1.193s-.773.494-1.237.494-.9-.178-1.237-.494-.513-.746-.513-1.193l.003-.104.001-.025.8-25.183h1.908l.558 17.744 1.75-.05L51.7 21.05c.712-.118 1.358-.475 1.824-1.008s.722-1.207.723-1.904V4.22H52.5zm0 13.922a1.25 1.25 0 0 1-.385.895 1.34 1.34 0 0 1-.928.371h-4.375a1.34 1.34 0 0 1-.928-.371 1.25 1.25 0 0 1-.385-.895v-3.797h7v3.797zM9.674 20.117c1.695-1.404 2.826-4.187 2.826-7.46 0-4.73-2.36-8.437-5.375-8.437S1.75 7.925 1.75 12.656c0 3.115 1.023 5.785 2.583 7.247l-.196 6.228 1.75.05.165-5.25a3.65 3.65 0 0 0 1.901.067l.794 25.278c0 .008.001.017.001.025a1.71 1.71 0 0 1 .003.104c0 .448-.184.877-.513 1.193s-.773.494-1.237.494-.9-.178-1.237-.494-.513-.746-.513-1.193a1.71 1.71 0 0 1 .003-.104c0-.008.001-.017.001-.025l.578-18.408-1.75-.05-.578 18.396a3.28 3.28 0 0 0-.006.192c0 .895.37 1.754 1.025 2.387S6.07 49.78 7 49.78s1.82-.355 2.475-.988S10.5 47.3 10.5 46.406a3.3 3.3 0 0 0-.006-.192l-.82-26.097zM3.5 12.656c0-4.038 1.874-6.75 3.625-6.75s3.625 2.712 3.625 6.75-1.874 6.75-3.625 6.75S3.5 16.694 3.5 12.656zM18.42 25.9l-.875 2.53 1.66.534.875-2.53-1.66-.534zm4.928 3.674l-2.625.844.553 1.6 2.625-.844-.553-1.6zm-.113-4.12l-.97 1.404 2.625 1.688.97-1.404-2.625-1.687z"/></svg>