<svg xmlns="http://www.w3.org/2000/svg" viewBox="0 0 38 5" fill="#fff" xmlns:v="https://vecta.io/nano"><path d="M16.436 3.64c-.287.076-.496-.777-.333-1.1.063-.127.152-.26.255-.358.233-.217.666-.27.98-.273.164-.002.556.044.754.218a2.02 2.02 0 0 1 .257.283c.136.176.1.12.318.108s-.152-.544-.2-.603c-.178-.18-.367-.366-.62-.45-.522-.174-1.073-.176-1.593-.36-.232-.08-.468-.162-.67-.305-.218-.154-.233-.418.002-.56.136-.083-.078-.13-.128-.148-.1-.037-.18.175-.2.244-.108.24-.008.482.2.643.036.03.245.1.238.155-.01.078-.183.05-.114.177.13.24.416.23.643.247.253.02.517-.06.775-.045.137.008.267 0 .4.03.057.012.13.014.178.05.056.04.058.14-.03.137-.52-.01-1.163-.236-1.648.05-.124.073-.2.187-.28.31-.08.14.036.213.176.15.03-.014.276-.223.27-.088-.004.07-.118.123-.165.157-.076.056-.142.122-.203.193-.086.1-.153.205-.155.338s.005.4.187.326c.082-.034.127.263.16.324.072.13.184.292.35.315.112.015.234.03.34-.034.03-.02.117-.09.08-.135-.042-.052-.145-.007-.197.006zm5.586-1.292c-.023-.02-.234-.182-.115-.203.04-.007.084.015.13.037.063.03.128.06.192.012.143-.1-.33-.416-.4-.445-.3-.12-.594-.1-.9-.105a2.15 2.15 0 0 0-.403.054c-.033.007-.326.078-.25-.068.094-.18.573-.12.732-.12.144.002.288 0 .43.024.215.037.528.026.64-.04.054-.032.296-.195.198-.27-.012-.01-.262-.075-.184-.114.096-.05.188-.063.27-.138.197-.177.336-.505.105-.707-.028-.024-.212-.113-.2-.01s.13.146.112.276-.113.232-.214.308c-.1.067-.7.362-1.063.396-.257.026-.53.04-.778.12-.515.166-.945.444-1.195.94-.075.148-.053.2.1.247s.166-.05.248-.153c.185-.233.427-.375.715-.45.518-.134 1.216.05 1.5.534.128.22.184.513.1.756-.036.116-.1.248-.217.316-.05.03-.347.023-.227.137.18.17.516-.06.614-.212.028-.044.072-.254.105-.27.02-.01.042-.002.063.007s.043.018.066.007c.052-.026.05-.128.074-.174.117-.217-.113-.55-.263-.688z"/><path d="M24.246 2.902c-.043-.1-.13-.164-.23-.206-.04-.017-.232-.1-.182-.183.062-.09.233.09.278.125a.82.82 0 0 0 .763.157c.175-.043.143-.1.03-.2-.084-.074.134-.148.18-.19.086-.076.145-.145.182-.25.042-.12.007-.128-.082-.04-.395.394-.978.217-1.446.114-.305-.067-.603-.165-.9-.26l-.397-.14c-.036-.012-.315-.123-.308-.04.007.074.154.236.2.305.074.115.173.16.288.234a2.77 2.77 0 0 1 .627.564c.147.177.255.43.103.642-.078.1.107.07.152.043.086-.052.175-.19.153-.29.006.028.005.008.003-.012s-.007-.048-.003.012c-.02-.272-.168-.47-.36-.657-.04-.04-.106-.084-.13-.137-.016-.04.024-.12.075-.076.094.082.16.157.233.257a1.21 1.21 0 0 0 .209.194c.08.06.18.155.287.15.058-.003.315-.014.27-.114zm-8.828-1.055c-.454.207-.948.293-1.432.415-.14.035-.288.078-.432.09-.132.012-.255.005-.386.013-.143.008-.293-.045-.417-.1-.058-.03-.162-.177-.226-.168-.155.023.268.382.34.408s-.064.176-.04.24c.017.043.314.127.36.124.3.034.46-.262.708-.317.143-.032-.094.173-.12.186-.083.04-.252.09-.257.203s.23.076.297.083c.12.013.24-.14.315-.2.105-.097.196-.204.312-.29.045-.033.1-.103.172-.102s-.001.08-.013.09c-.198.164-.37.373-.446.617-.06.19.046.48.286.48.135-.001-.025-.183-.04-.224-.047-.124-.001-.222.05-.334.096-.214.304-.352.462-.51.1-.09.18-.183.297-.24.078-.037.24-.086.267-.174.033-.107.12-.173.168-.267.056-.107-.2-.022-.22-.008z"/><path d="M13.58 3.05c-.22.014-.404.148-.603.232-.435.184-1.002.272-1.467.172-.2-.045-.396-.236-.38-.45.005-.077.1-.2-.046-.2-.118.002-.164.108-.186.205-.02.084-.015.197.03.275.046.083-.174.05-.122.142s.2.168.3.2c.106.05-.052.058-.087.056-.206.015-.488-.132-.673-.2a1.69 1.69 0 0 1-.326-.185c-.145-.103-.183-.15-.354-.082-.04.015-.147.015-.083.086a.95.95 0 0 0 .299.207 4.13 4.13 0 0 0 .477.202H.3c-.048 0-.087.04-.087.086V3.8c0 .048.04.086.087.086h11.113c.673.003 1.332-.19 1.937-.504.073-.037.577-.344.24-.322zm6.58-.374c-.118.005-.27.092-.302.19a.3.3 0 0 0 .079.33c.134.122.182.03.295-.05.094-.066.068.274.035.324-.173.26-.566.18-.757.003-.103-.095-.15-.224-.188-.354-.032-.1-.25-.228-.346-.116-.062.072.038.32.075.393a1.45 1.45 0 0 0 .278.39c.26.258.587.25.914.15.283-.087.483-.4.474-.682-.007-.245-.205-.59-.557-.58zm-1.53.304c-.14.053-.1.215-.174.328-.152.276-.442.4-.738.273-.114-.053-.24-.16-.227-.295.023-.23.1-.045.25-.04.385.01.285-.567-.077-.57-.254-.028-.48.237-.508.464-.034.284.096.583.36.738a.81.81 0 0 0 .796.02c.307-.153.44-.424.503-.74.027-.14-.026-.235-.184-.176zm6.15-1.502c.068.012.098.114.172.1s.097-.114.17-.134c.065-.018.146-.006.2.037.144.117.162.392.082.553-.018.036-.135.278-.103.3.06.043.168-.158.188-.188.107-.164.205-.405.172-.605-.015-.184-.118-.397-.256-.496-.113-.08-.38-.172-.552-.1-.15.065-.34.175-.263.38.043.113.086.123.2.14z"/><path d="M12.4 2.23c.086.06 0-.18 0-.182a1.27 1.27 0 0 1-.042-.304c.002-.148.174-.382.345-.287.1.05.07.31.246.142.124-.12.274-.135.34-.323.073-.2-.217-.328-.36-.352-.467-.077-.688.433-.73.8l-.001.018c-.007.14.085.407.203.488zm7.13.65c.058-.332-1.1-.42-1.212-.014-.048.19.1.095.184.047.103-.065.236-.08.356-.08a1.12 1.12 0 0 1 .41.058c.128.05.25.2.262-.013zm17.77.823h-9.885c.153-.05.302-.1.443-.187.134-.07.453-.23.203-.337-.12-.052-.17-.01-.257.07s-.183.115-.28.175c-.163.1-.487.225-.682.202-.07-.008.238-.18.162-.255-.1-.087-.038-.103-.03-.22.01-.124.006-.232-.115-.296-.056-.03-.195-.037-.138.068s.075.148.018.264a.62.62 0 0 1-.565.32c-.107.001-.902-.074-1.358-.23-.22-.075-.4-.196-.636-.18-.148.01.01.1.05.128l.426.205c.352.183.745.324 1.14.4.167.032.364.06.54.048h-.001H37.3c.048 0 .087-.04.087-.086h0c0-.048-.04-.086-.087-.086z"/></svg>